<svg width="31" height="30" viewBox="0 0 31 30" fill="none" xmlns="http://www.w3.org/2000/svg">
<path d="M15.4375 0C7.16653 0 0.4375 6.72903 0.4375 15C0.4375 23.2704 7.16653 30 15.4375 30C23.7079 30 30.4375 23.2704 30.4375 15C30.4375 6.72903 23.7091 0 15.4375 0ZM19.1679 15.5281H16.7275C16.7275 19.427 16.7275 24.2262 16.7275 24.2262H13.1113C13.1113 24.2262 13.1113 19.4735 13.1113 15.5281H11.3923V12.4539H13.1113V10.4654C13.1113 9.04133 13.788 6.81604 16.7607 6.81604L19.4404 6.82631V9.81048C19.4404 9.81048 17.812 9.81048 17.4954 9.81048C17.1788 9.81048 16.7287 9.96878 16.7287 10.6479V12.4545H19.4839L19.1679 15.5281Z" fill="#797979"/>
</svg>
