<svg width="31" height="30" viewBox="0 0 31 30" fill="none" xmlns="http://www.w3.org/2000/svg">
<path d="M15.3118 18.0029C16.9667 18.0029 18.3159 16.6561 18.3159 15C18.3159 14.3462 18.102 13.7426 17.7479 13.2496C17.2023 12.4931 16.3153 11.9971 15.3136 11.9971C14.3112 11.9971 13.4248 12.4925 12.878 13.249C12.5227 13.742 12.3107 14.3456 12.3101 14.9994C12.3082 16.6555 13.6562 18.0029 15.3118 18.0029Z" fill="#797979"/>
<path d="M21.8693 11.3265V8.80936V8.43475L21.4928 8.43596L18.9769 8.44382L18.9866 11.3361L21.8693 11.3265Z" fill="#797979"/>
<path d="M15.3125 0C7.04153 0 0.3125 6.72903 0.3125 15C0.3125 23.2704 7.04153 30 15.3125 30C23.5829 30 30.3125 23.2704 30.3125 15C30.3125 6.72903 23.5841 0 15.3125 0ZM23.8433 13.2496V20.2342C23.8433 22.0535 22.3642 23.532 20.5461 23.532H10.0789C8.26022 23.532 6.78173 22.0535 6.78173 20.2342V13.2496V9.76698C6.78173 7.94832 8.26022 6.46983 10.0789 6.46983H20.5455C22.3642 6.46983 23.8433 7.94832 23.8433 9.76698V13.2496Z" fill="#797979"/>
<path d="M19.9788 15C19.9788 17.5721 17.8858 19.6663 15.3125 19.6663C12.7392 19.6663 10.6468 17.5721 10.6468 15C10.6468 14.3813 10.7701 13.7898 10.99 13.2496H8.4433V20.2342C8.4433 21.1369 9.1762 21.868 10.0783 21.868H20.5449C21.4458 21.868 22.1799 21.1369 22.1799 20.2342V13.2496H19.632C19.8537 13.7898 19.9788 14.3813 19.9788 15Z" fill="#797979"/>
</svg>
