<svg width="21" height="17" viewBox="0 0 21 17" fill="none" xmlns="http://www.w3.org/2000/svg">
<path d="M18.5218 16.6786C18.9714 16.6786 19.3609 16.5302 19.6921 16.2371L14.0258 10.5706C13.8898 10.6679 13.7581 10.7626 13.6336 10.8526C13.2095 11.165 12.8654 11.4088 12.6011 11.5835C12.3369 11.7586 11.9853 11.9371 11.5464 12.1193C11.1073 12.3017 10.6982 12.3926 10.3187 12.3926H10.3075H10.2964C9.91688 12.3926 9.50776 12.3017 9.06865 12.1193C8.62954 11.9371 8.27797 11.7586 8.01399 11.5835C7.74975 11.4088 7.40578 11.165 6.98152 10.8526C6.86329 10.7659 6.73217 10.6708 6.59041 10.569L0.923004 16.2371C1.25413 16.5302 1.64393 16.6786 2.09346 16.6786H18.5218Z" fill="#828282"/>
<path d="M1.43497 7.00236C1.01096 6.71967 0.634962 6.39592 0.307617 6.03125V14.6524L5.30189 9.65815C4.30275 8.96062 3.01541 8.07637 1.43497 7.00236Z" fill="#828282"/>
<path d="M19.1916 7.00236C17.6714 8.03127 16.3794 8.91704 15.3154 9.66015L20.3077 14.6526V6.03125C19.9876 6.38859 19.6156 6.71212 19.1916 7.00236Z" fill="#828282"/>
<path d="M18.5219 0.964355H2.09355C1.52042 0.964355 1.07978 1.15789 0.771102 1.54457C0.462166 1.93143 0.307953 2.41524 0.307953 2.99546C0.307953 3.46412 0.512603 3.97194 0.92172 4.51904C1.33084 5.06592 1.76617 5.49548 2.22751 5.80794C2.48041 5.98662 3.24309 6.51684 4.51554 7.3984C5.20244 7.8744 5.7998 8.28929 6.31313 8.64732C6.75068 8.95219 7.12802 9.21621 7.43957 9.43531C7.47534 9.4604 7.53158 9.50063 7.60624 9.55401C7.68667 9.61178 7.78845 9.68509 7.91401 9.77576C8.15581 9.95064 8.35668 10.092 8.51667 10.2C8.67644 10.308 8.87001 10.4287 9.0971 10.5627C9.32401 10.6965 9.53803 10.7971 9.7389 10.864C9.93981 10.9309 10.1258 10.9644 10.2969 10.9644H10.308H10.3191C10.4902 10.9644 10.6762 10.9309 10.8771 10.864C11.078 10.7971 11.2918 10.6967 11.5189 10.5627C11.7458 10.4287 11.9391 10.3078 12.0994 10.2C12.2594 10.092 12.4602 9.95067 12.7021 9.77576C12.8274 9.68509 12.9292 9.61175 13.0096 9.55419C13.0843 9.5006 13.1405 9.46062 13.1765 9.43531C13.4192 9.26643 13.7974 9.0035 14.3059 8.65041C15.2312 8.00752 16.5939 7.06129 18.3997 5.80794C18.9428 5.42859 19.3965 4.97082 19.7612 4.43527C20.1252 3.89971 20.3077 3.33794 20.3077 2.75014C20.3077 2.25903 20.1308 1.8388 19.7777 1.4888C19.4241 1.13923 19.0055 0.964355 18.5219 0.964355Z" fill="#828282"/>
</svg>
