<svg width="18" height="24" viewBox="0 0 18 24" fill="none" xmlns="http://www.w3.org/2000/svg">
<path d="M9.30768 0C4.51494 0 0.615784 3.89916 0.615784 8.69185C0.615784 14.6397 8.39418 23.3716 8.72536 23.7404C9.03642 24.0868 9.57951 24.0862 9.89001 23.7404C10.2212 23.3716 17.9996 14.6397 17.9996 8.69185C17.9995 3.89916 14.1004 0 9.30768 0ZM9.30768 13.065C6.89634 13.065 4.93462 11.1032 4.93462 8.69185C4.93462 6.28051 6.89638 4.31879 9.30768 4.31879C11.719 4.31879 13.6807 6.28055 13.6807 8.6919C13.6807 11.1032 11.719 13.065 9.30768 13.065Z" fill="#828282"/>
</svg>
