<svg width="21" height="21" viewBox="0 0 21 21" fill="none" xmlns="http://www.w3.org/2000/svg">
<path d="M19.9165 18.1399C19.9114 18.145 19.9114 18.1399 19.9165 18.1399C19.7167 18.355 19.5119 18.5497 19.2916 18.7648C18.9587 19.0823 18.6206 19.4153 18.3031 19.7892C17.7858 20.3423 17.1763 20.6035 16.3772 20.6035C16.3004 20.6035 16.2185 20.6035 16.1416 20.5984C14.6204 20.5011 13.2068 19.907 12.1465 19.3999C9.24753 17.9965 6.70193 16.0041 4.58658 13.4789C2.84 11.3738 1.6722 9.42751 0.898793 7.33777C0.422455 6.06241 0.248309 5.06875 0.325138 4.13144C0.376357 3.53218 0.606844 3.03535 1.03196 2.61023L2.77854 0.863656C3.02951 0.628048 3.29585 0.5 3.55707 0.5C3.87975 0.5 4.14097 0.694633 4.30487 0.858534C4.30999 0.863656 4.31511 0.868778 4.32024 0.8739C4.63267 1.16585 4.92975 1.46804 5.24218 1.79072C5.40096 1.95463 5.56486 2.11853 5.72877 2.28755L7.12705 3.68584C7.66997 4.22876 7.66997 4.73071 7.12705 5.27363C6.97851 5.42217 6.8351 5.5707 6.68656 5.71412C6.25632 6.1546 5.84657 6.56435 5.40096 6.96386C5.39072 6.97411 5.38048 6.97923 5.37535 6.98947C4.93487 7.42996 5.01682 7.8602 5.10901 8.15215C5.11413 8.16752 5.11926 8.18288 5.12438 8.19825C5.48804 9.07922 6.00023 9.90897 6.77876 10.8975L6.78388 10.9026C8.19753 12.6441 9.68801 14.0014 11.3321 15.0411C11.5421 15.1743 11.7573 15.2819 11.9621 15.3843C12.1465 15.4765 12.3207 15.5636 12.4692 15.6558C12.4897 15.666 12.5102 15.6814 12.5307 15.6916C12.7048 15.7787 12.8687 15.8197 13.0377 15.8197C13.4629 15.8197 13.7292 15.5533 13.8163 15.4663L15.568 13.7146C15.7421 13.5404 16.0187 13.3304 16.3414 13.3304C16.6589 13.3304 16.9202 13.5302 17.0789 13.7043C17.0841 13.7094 17.0841 13.7094 17.0892 13.7146L19.9114 16.5367C20.4389 17.0592 20.4389 17.597 19.9165 18.1399Z" fill="#828282"/>
</svg>
