<svg width="31" height="30" viewBox="0 0 31 30" fill="none" xmlns="http://www.w3.org/2000/svg">
<path d="M15.875 0C7.60403 0 0.875 6.72903 0.875 15C0.875 23.2704 7.60403 30 15.875 30C24.1454 30 30.875 23.2704 30.875 15C30.875 6.72903 24.1466 0 15.875 0ZM22.5666 11.5669C22.5732 11.7155 22.5768 11.8654 22.5768 12.0152C22.5768 16.5776 19.1051 21.8366 12.7531 21.8366C10.8033 21.8366 8.98827 21.2668 7.46084 20.2868C7.73092 20.3188 8.00583 20.3351 8.28437 20.3351C9.90243 20.3351 11.3906 19.7829 12.5724 18.8572C11.0619 18.8295 9.78642 17.8313 9.34717 16.4592C9.55743 16.499 9.77434 16.5214 9.99608 16.5214C10.3109 16.5214 10.6166 16.4803 10.906 16.4012C9.32662 16.0845 8.13694 14.6894 8.13694 13.0158C8.13694 13.0013 8.13694 12.9862 8.13755 12.9723C8.60279 13.2303 9.13509 13.3862 9.70063 13.4037C8.77498 12.7856 8.16534 11.7282 8.16534 10.5307C8.16534 9.89749 8.33512 9.30416 8.63239 8.79421C10.3344 10.8835 12.8793 12.2575 15.7481 12.4025C15.6889 12.1494 15.6593 11.8865 15.6593 11.6152C15.6593 9.70897 17.2049 8.16281 19.1111 8.16281C20.1044 8.16281 21.0005 8.58213 21.6313 9.2528C22.4185 9.09812 23.1557 8.81173 23.8245 8.41477C23.5647 9.22138 23.0191 9.89749 22.3043 10.3253C23.0034 10.2419 23.6705 10.057 24.2873 9.78208C23.8269 10.4733 23.2415 11.0817 22.5666 11.5669Z" fill="#797979"/>
</svg>
